<svg width="48" height="48" viewBox="0 0 48 48" fill="none" xmlns="http://www.w3.org/2000/svg">
<path d="M40.8961 39.2925L29.4586 21.33L40.6561 9.01313C41.049 8.57022 41.2515 7.9903 41.2197 7.39909C41.1879 6.80788 40.9244 6.25304 40.4862 5.85484C40.048 5.45665 39.4706 5.24721 38.879 5.27193C38.2875 5.29664 37.7295 5.55352 37.3261 5.98688L26.963 17.3944L19.8961 6.2925C19.693 5.97318 19.4127 5.71024 19.081 5.52802C18.7493 5.3458 18.377 5.25017 17.9986 5.25H8.99861C8.59556 5.25019 8.19996 5.35864 7.85315 5.56401C7.50635 5.76939 7.22109 6.06415 7.02717 6.41749C6.83326 6.77083 6.73781 7.16977 6.75082 7.57261C6.76383 7.97545 6.88481 8.36741 7.10111 8.7075L18.5386 26.67L7.33361 38.9869C7.13074 39.2048 6.97313 39.4608 6.86994 39.7401C6.76674 40.0194 6.72 40.3164 6.73243 40.6139C6.74486 40.9114 6.81621 41.2034 6.94234 41.4731C7.06848 41.7428 7.24689 41.9848 7.46724 42.1851C7.68758 42.3853 7.94548 42.5399 8.22599 42.6397C8.50649 42.7395 8.80403 42.7827 9.10134 42.7667C9.39865 42.7507 9.68984 42.6759 9.95801 42.5465C10.2262 42.4172 10.466 42.2359 10.6636 42.0131L21.0342 30.6056L28.1011 41.7075C28.3042 42.0268 28.5846 42.2898 28.9162 42.472C29.2479 42.6542 29.6202 42.7498 29.9986 42.75H38.9986C39.4017 42.7498 39.7973 42.6414 40.1441 42.436C40.4909 42.2306 40.7761 41.9359 40.9701 41.5825C41.164 41.2292 41.2594 40.8302 41.2464 40.4274C41.2334 40.0245 41.1124 39.6326 40.8961 39.2925ZM31.2342 38.25L13.0974 9.75H16.763L34.8999 38.25H31.2342Z" fill="black"/>
</svg>
